<svg xmlns="http://www.w3.org/2000/svg" xmlns:xlink="http://www.w3.org/1999/xlink" xml:space="preserve" style="shape-rendering:geometricPrecision;text-rendering:geometricPrecision;image-rendering:optimizeQuality;" viewBox="0 0 6.82666 8.533325000000001" x="0px" y="0px" fill-rule="evenodd" clip-rule="evenodd">
	<g>
		<g>
			<path class="fil0" d="M3.0413 3.55312c-0.126087,0.0494449 -0.254445,0.20139 -0.348051,0.312362l-0.00650394 0.00791732c-0.0452835,0.0534685 -0.0961339,0.1025 -0.145165,0.149858 -0.0949921,0.0913898 -0.184583,0.17778 -0.18528,0.25361 -0.000401575,0.0380551 0.0219488,0.0790315 0.0681969,0.125417 0.0462795,0.046252 0.0873622,0.0686102 0.12528,0.0681969 0.0758425,-0.00069685 0.16222,-0.0904173 0.253752,-0.18528 0.0473701,-0.0491654 0.096248,-0.1 0.149858,-0.145138l0.00779528 -0.00666535c0.110969,-0.0936102 0.262902,-0.221807 0.312343,-0.348055 0.0140157,-0.0356417 0.0278425,-0.0668425 0.0421654,-0.0950079l-0.179295 -0.179268c-0.0281457,0.0143346 -0.059378,0.028126 -0.0950945,0.0420512z" />
			<path class="fil0" d="M2.88631 3.03465l0.585295 0.585366 0.000688976 0.000688976 0.319736 0.319776c0.0215,0.0215315 0.0290039,0.0533386 0.0191378,0.0822283 -0.0417953,0.123189 -0.0106929,0.256665 0.081252,0.348606 0.0558622,0.0558346 0.127083,0.0893071 0.202083,0.0975l-0.124004 -0.124028c-0.0134685,-0.0134685 -0.021689,-0.0315276 -0.0232165,-0.0505551l-0.021252 -0.282362c-0.00165748,-0.0231929 0.00680315,-0.0461102 0.0231969,-0.0626339 0.0165551,-0.0163937 0.0394449,-0.0248622 0.0626378,-0.0231969l0.282386 0.021248c0.0190315,0.0015315 0.0369213,0.00972047 0.0505315,0.0231969l0.124028 0.124028c-0.00818504,-0.0750039 -0.0416654,-0.146252 -0.0975039,-0.202083 -0.0919331,-0.0919449 -0.225413,-0.123055 -0.348606,-0.081252 -0.0288898,0.0098622 -0.0606969,0.0023622 -0.0822244,-0.0191654l-0.905819 -0.905693c-0.0215315,-0.0215315 -0.0289016,-0.0534764 -0.0191811,-0.0823622 0.0418346,-0.123059 0.0106969,-0.256669 -0.0811102,-0.348472 -0.0559606,-0.0559724 -0.12722,-0.0893071 -0.20222,-0.0975l0.124043 0.124024c0.013622,0.0134724 0.0217874,0.0313898 0.0231772,0.0505591l0.0212598 0.282358c0.00181102,0.0231969 -0.00667717,0.0461142 -0.0232087,0.0625 -0.0165118,0.0165315 -0.0392992,0.0250039 -0.0625,0.0231969l-0.282354 -0.021252c-0.0191575,-0.00138976 -0.0370866,-0.00957874 -0.0505591,-0.023189l-0.124004 -0.124031c0.00818898,0.075 0.0415039,0.146252 0.0974764,0.202224 0.0918071,0.0918031 0.225417,0.122917 0.348472,0.0811102 0.00848819,-0.00277953 0.0170866,-0.00416535 0.0257087,-0.00416535 0.0209685,0 0.041374,0.00818898 0.0566535,0.0233307z" />
			<path class="fil0" d="M4.09422 2.6827l-0.51839 0.518409 0.0497835 0.0497795 0.518346 -0.518327c0.00665748,-0.00666929 0.0144213,-0.0120827 0.0230354,-0.0161102l0.155433 -0.071811 0.12722 -0.212079 -0.0554055 -0.0555551 -0.21222 0.127358 -0.071811 0.155417c-0.00390945,0.00847638 -0.00932677,0.016252 -0.0159921,0.0229173z" />
			<path class="fil0" d="M4.24703 2.85576l-0.508276 0.50826 0.281744 0.281736c0.166937,-0.0386102 0.340807,0.0104173 0.463866,0.133476 0.135445,0.135413 0.181248,0.33222 0.119441,0.51361 -0.00887008,0.0261063 -0.030689,0.0458346 -0.0574961,0.0520827 -0.026937,0.00624803 -0.0552756,-0.00180709 -0.0747244,-0.0213898l-0.219024 -0.21889 -0.16 -0.0120827 0.0120945 0.16 0.218874 0.219028c0.0195945,0.0194449 0.0276417,0.0477795 0.0213898,0.0747244 -0.00623228,0.0268031 -0.0259724,0.0486102 -0.0520827,0.0574961 -0.0534646,0.0181969 -0.108193,0.0270827 -0.162213,0.0270827 -0.12972,0 -0.255843,-0.0509685 -0.351398,-0.146524 -0.123039,-0.123059 -0.172083,-0.297087 -0.133472,-0.464031l-0.209697 -0.209661c-0.00447244,0.0104685 -0.00896063,0.0214921 -0.0135,0.0331339 -0.0641535,0.16389 -0.234165,0.307224 -0.358193,0.411945l-0.00777165 0.0065315c-0.0472205,0.0398583 -0.0933386,0.0876339 -0.137921,0.133886 -0.11539,0.119858 -0.224445,0.232917 -0.367366,0.234307l-0.00249606 0c-0.0823425,0 -0.160004,-0.0376417 -0.237504,-0.115138 -0.0781811,-0.0781969 -0.115831,-0.156669 -0.114996,-0.239862 0.00125197,-0.143059 0.114449,-0.252087 0.234165,-0.3675 0.0462756,-0.0444488 0.0940276,-0.0905551 0.13389,-0.13778l0.00669685 -0.00791339c0.104563,-0.124031 0.248024,-0.293894 0.411913,-0.358055 0.0115906,-0.00455906 0.0225748,-0.00906693 0.0330197,-0.0135472l-0.209685 -0.20965c-0.166937,0.0386102 -0.340835,-0.0104173 -0.464028,-0.133614 -0.135409,-0.13528 -0.18111,-0.332083 -0.119445,-0.513472 0.00891339,-0.0261063 0.0306929,-0.0458307 0.0576378,-0.0522205 0.0269606,-0.00625197 0.0551378,0.00180709 0.0747244,0.0213898l0.218894 0.21889 0.16 0.0120827 -0.012063 -0.16 -0.218906 -0.21889c-0.0195945,-0.0195866 -0.0276496,-0.0477756 -0.0213976,-0.0747244 0.00639764,-0.0269409 0.0259724,-0.048748 0.0522205,-0.0576339 0.181394,-0.0616693 0.378055,-0.0159724 0.513469,0.119445 0.123209,0.123051 0.172228,0.297083 0.133614,0.464028l0.281669 0.281661 0.508331 -0.508331 0.076126 -0.16472c0.00665354,-0.0145827 0.017626,-0.0268071 0.031374,-0.035l0.286969 -0.172228c0.031374,-0.0188858 0.0717835,-0.0138858 0.0976181,0.0119488l0.143913 0.143886c0.0259685,0.0259764 0.0309449,0.066252 0.0120591,0.0977795l-0.172217 0.286807c-0.00834252,0.013748 -0.0204252,0.0247244 -0.0350118,0.0315315l-0.164831 0.0761102zm-0.793063 -1.93278l0 0zm-0.0811299 0l-2.44984 2.44987c-0.0107165,0.0105551 -0.0165512,0.025 -0.0165512,0.0405551 1.9685e-005,0.0155551 0.00583465,0.0298583 0.0165276,0.0405512l2.44987 2.44987c0.010563,0.0105551 0.0249961,0.0163858 0.0405512,0.0163858 0.0155748,0 0.0298622,-0.00583071 0.0405551,-0.0163858l2.44986 -2.44987c0.010563,-0.0106929 0.0163898,-0.0249961 0.0163898,-0.0405512 1.9685e-005,-0.0155551 -0.00583465,-0.03 -0.0163898,-0.0405551l-2.44986 -2.44987c-0.0106654,-0.0106929 -0.025,-0.0165236 -0.0405433,-0.0165276 -0.015563,0 -0.0300118,0.00583465 -0.0405669,0.0165276z" />
			<path class="fil0" d="M3.567 0.809787l2.44987 2.44986c0.0408465,0.0408386 0.0633268,0.0954213 0.0633268,0.153756 1.9685e-005,0.0581929 -0.0225,0.11278 -0.0633386,0.15361l-2.44983 2.45c-0.0408425,0.0406929 -0.0954449,0.0631929 -0.153626,0.0631929 -0.0583425,0 -0.112929,-0.0225 -0.153764,-0.0631929l-2.44986 -2.45c-0.040815,-0.0408346 -0.0633346,-0.0954173 -0.0633346,-0.15361 1.9685e-005,-0.0583346 0.0225,-0.112917 0.0633346,-0.153752l2.44987 -2.44986c0.0408425,-0.0408307 0.0954055,-0.0633307 0.153736,-0.0633307 0.0582008,-3.93701e-006 0.11278,0.0225 0.15361,0.0633307zm-0.477083 -0.16972l-2.44986 2.44986c-0.178311,0.178335 -0.178335,0.468472 0,0.646807l2.44987 2.44986c0.178346,0.178335 0.468453,0.178335 0.646791,0l2.44987 -2.44986c0.178343,-0.178335 0.178327,-0.468472 -7.87402e-006,-0.646803l-2.44983 -2.44986c-0.089189,-0.0891693 -0.206276,-0.133752 -0.323346,-0.133752 -0.117217,0 -0.234315,0.0445827 -0.323484,0.133752z" />
		</g>
	</g>
	<rect class="fil1" width="6.82666" height="6.82666" />
	<text x="0" y="21.82666" fill="#000000" font-size="5px" font-weight="bold" font-family="'Helvetica Neue', Helvetica, Arial-Unicode, Arial, Sans-serif">
		Created by Circlon Tech
	</text>
	<text x="0" y="26.82666" fill="#000000" font-size="5px" font-weight="bold" font-family="'Helvetica Neue', Helvetica, Arial-Unicode, Arial, Sans-serif">
		from the Noun Project
	</text>
</svg>
